<svg width="33" height="23" viewBox="0 0 33 23" fill="none" xmlns="http://www.w3.org/2000/svg">
<path fill-rule="evenodd" clip-rule="evenodd" d="M4.87678 4.03575C2.84102 5.57697 1.5999 7.78084 1.5999 10.4984C1.5999 12.032 1.9607 13.3177 2.6574 14.3825C3.35514 15.4489 4.41548 16.3327 5.87659 17.0186L5.88319 17.0217L5.88971 17.025L5.9714 17.0658L5.98434 17.0723L5.99694 17.0793L6.07658 17.124L6.08846 17.1307L6.10003 17.1379C6.8319 17.5935 7.27217 18.196 7.37898 18.9006C7.48275 19.5851 7.25435 20.2541 6.88688 20.829C6.77317 21.0068 6.66628 21.1609 6.56864 21.294C6.79585 21.263 7.05743 21.2124 7.34456 21.1347C8.36671 20.8581 9.69352 20.243 10.939 18.9688L11.1318 18.7715L11.4072 18.7895C14.9251 19.0193 18.2024 18.1354 20.5839 16.5858C22.9689 15.0338 24.3999 12.8593 24.3999 10.4984C24.3999 5.70708 19.4343 1.5999 12.9999 1.5999C9.79001 1.5999 6.92451 2.48548 4.87678 4.03575ZM4.15246 3.07901C6.44788 1.34121 9.58237 0.399902 12.9999 0.399902C19.8203 0.399902 25.5999 4.79798 25.5999 10.4984C25.5999 13.3834 23.8512 15.8914 21.2384 17.5916C18.6854 19.2529 15.2542 20.1863 11.6013 20.0027C10.2441 21.3186 8.80496 21.9826 7.65807 22.293C7.05856 22.4553 6.53403 22.5223 6.13642 22.534C5.93917 22.5399 5.76212 22.5324 5.61656 22.5121C5.54518 22.5022 5.46651 22.4872 5.39069 22.4629L5.38892 22.4623C5.34394 22.4479 5.17677 22.3943 5.05008 22.2415C4.97627 22.1525 4.90379 22.0261 4.88309 21.8629C4.86287 21.7035 4.89981 21.5689 4.9394 21.4751C5.00224 21.3262 5.11393 21.1914 5.17914 21.1127L5.18627 21.1041C5.20534 21.081 5.2254 21.057 5.24643 21.0318C5.40326 20.8442 5.61456 20.5913 5.87581 20.1826C6.14729 19.7579 6.23837 19.3828 6.19254 19.0805C6.15006 18.8003 5.97393 18.4761 5.47685 18.1635L5.42229 18.1329L5.35994 18.1017C3.74316 17.3415 2.49493 16.3259 1.65326 15.0396C0.809389 13.7499 0.399902 12.2273 0.399902 10.4984C0.399902 7.37125 1.84508 4.82586 4.15246 3.07901ZM18.4941 0.864908L20.7901 0.902258C24.0035 0.954532 26.9412 1.87651 29.0903 3.53839C31.251 5.20928 32.5999 7.62121 32.5999 10.5737C32.5999 12.1762 32.2315 13.5956 31.4711 14.8074C30.7114 16.0183 29.5834 16.9853 28.1216 17.7208L28.1151 17.7241L28.1151 17.7241L27.7707 17.8921L27.7215 17.9196C27.2501 18.2153 27.0875 18.5188 27.0483 18.7764C27.0058 19.056 27.0897 19.4074 27.3477 19.8098C27.5972 20.1987 27.7987 20.4391 27.9489 20.6183C27.9691 20.6423 27.9883 20.6653 28.0066 20.6874L28.0139 20.6962C28.0761 20.771 28.1855 20.9025 28.2473 21.0486C28.2865 21.1412 28.3235 21.275 28.3033 21.4337C28.2826 21.5962 28.2102 21.7218 28.1371 21.8097C28.0109 21.9613 27.8451 22.0143 27.8012 22.0283L27.7992 22.029C27.7248 22.0528 27.648 22.0673 27.5788 22.0769C27.4377 22.0965 27.2666 22.1036 27.0767 22.0981C26.6938 22.0868 26.1893 22.0225 25.6131 21.867C24.5128 21.5702 23.1331 20.9359 21.8312 19.6804C21.3548 19.704 20.8826 19.7078 20.4161 19.6929L20.1625 18.5588C23.6601 16.7738 25.8999 13.843 25.8999 10.4984C25.8999 7.17669 23.9932 4.22615 20.9674 2.31438L20.6859 2.14156L20.4783 2.02065L18.4941 0.864908ZM22.9843 2.29263C25.502 4.36188 27.0999 7.24171 27.0999 10.4984C27.0999 13.7954 25.2506 16.6308 22.4391 18.5918L22.4922 18.646C23.6821 19.8595 24.9496 20.4451 25.9257 20.7085C26.1747 20.7757 26.4035 20.8215 26.6058 20.8515C26.5223 20.7361 26.4324 20.6054 26.3376 20.4576C25.9833 19.9051 25.7611 19.2591 25.8619 18.596C25.9658 17.9128 26.3939 17.3312 27.0998 16.8931L27.1114 16.886L27.1232 16.8793L27.1995 16.8366L27.2142 16.8284L27.2293 16.821L27.5854 16.6473C28.8873 15.9916 29.8323 15.1616 30.4547 14.1696C31.077 13.1777 31.3999 11.9872 31.3999 10.5737C31.3999 8.02525 30.2498 5.952 28.3562 4.48767C26.9334 3.38743 25.083 2.62739 22.9843 2.29263Z" fill="#939695"/>
</svg>
