<svg width="25" height="25" viewBox="0 0 25 25" fill="none" xmlns="http://www.w3.org/2000/svg">
<path fill-rule="evenodd" clip-rule="evenodd" d="M21.0443 5.55148L20.938 5.4292L21.4509 5.08063L21.5324 4.98431C21.7621 4.6542 21.7255 4.22379 21.4509 3.94923C21.1385 3.63681 20.632 3.63681 20.3195 3.94923L19.788 4.2762L19.6485 4.15482C19.0511 3.65571 18.3999 3.21887 17.7051 2.85472L17.523 2.7632L17.7326 2.22793L17.7691 2.1202C17.8661 1.7261 17.671 1.33269 17.3088 1.17892C16.9021 1.00629 16.4324 1.19604 16.2598 1.60274L16.039 2.1502L15.8842 2.09885C15.1514 1.86992 14.3857 1.71566 13.5963 1.64544L13.393 1.6312L13.4 1.00024L13.3914 0.886786C13.3268 0.486113 12.9935 0.200195 12.6 0.200195C12.1581 0.200195 11.8 0.558368 11.8 1.0002V1.6302L11.6021 1.64485C10.8104 1.71604 10.043 1.87111 9.30966 2.10113L9.12895 2.1602L8.95354 1.61231L8.90317 1.51034C8.6931 1.16307 8.27699 1.02282 7.9121 1.17024C7.50245 1.33575 7.30453 1.80202 7.47004 2.21167L7.65795 2.7712L7.48898 2.85715C6.79598 3.22144 6.14666 3.65754 5.55123 4.15584L5.41595 4.2722L4.98039 3.84926L4.88407 3.76774C4.55396 3.53807 4.12355 3.57466 3.84898 3.84923C3.53656 4.16165 3.53656 4.66818 3.84898 4.9806L4.28395 5.4022L4.15458 5.55168C3.65546 6.14907 3.21863 6.80022 2.85447 7.49505L2.76495 7.6712L2.22768 7.46757L2.11995 7.43108C1.72586 7.33407 1.33245 7.52913 1.17868 7.89139C1.00604 8.29809 1.19579 8.76774 1.6025 8.94037L2.15295 9.1502L2.09864 9.31583C1.85083 10.109 1.6905 10.9409 1.62952 11.8002H0.999998L0.886542 11.8087C0.485868 11.8734 0.199951 12.2067 0.199951 12.6002C0.199951 13.042 0.558123 13.4002 0.999951 13.4002L1.62995 13.3992L1.64442 13.5961C1.7153 14.3859 1.86964 15.1514 2.09851 15.8831L2.15395 16.0502L1.60255 16.26L1.50143 16.3122C1.15788 16.5283 1.02491 16.9468 1.17868 17.309C1.35132 17.7157 1.82096 17.9055 2.22767 17.7328L2.76495 17.5282L2.85376 17.7052C3.21853 18.4001 3.65551 19.0512 4.15498 19.6482L4.27795 19.7892L3.84902 20.2198L3.7675 20.3161C3.53782 20.6462 3.57442 21.0766 3.84898 21.3512C4.1614 21.6636 4.66794 21.6636 4.98036 21.3512L5.40795 20.9212L5.55144 21.0456C6.14883 21.5447 6.79997 21.9815 7.49481 22.3457L7.67795 22.4372L7.46733 22.9725L7.43084 23.0802C7.33382 23.4743 7.52888 23.8677 7.89114 24.0215C8.29785 24.1941 8.76749 24.0044 8.94013 23.5976L9.15695 23.0482L9.31559 23.1015C10.0482 23.3304 10.8137 23.4847 11.6034 23.5555L11.8 23.5692V24.2002L11.8085 24.3136C11.8731 24.7143 12.2064 25.0002 12.6 25.0002C13.0418 25.0002 13.4 24.642 13.4 24.2002L13.399 23.5692L13.5969 23.5556C14.3889 23.4845 15.1565 23.3294 15.8901 23.0993L16.065 23.0402L16.2464 23.5881L16.2967 23.6901C16.5068 24.0373 16.9229 24.1776 17.2878 24.0301C17.6975 23.8646 17.8954 23.3984 17.7299 22.9887L17.537 22.4302L17.7109 22.3432C18.4039 21.979 19.0532 21.5428 19.6487 21.0446L19.783 20.9272L20.2195 21.3511L20.3158 21.4326C20.6459 21.6623 21.0764 21.6257 21.3509 21.3512C21.6633 21.0387 21.6633 20.5322 21.3509 20.2198L20.915 19.7982L21.0453 19.6487C21.5444 19.0513 21.9813 18.4002 22.3454 17.7053L22.429 17.5372L22.9722 17.7328L23.0799 17.7693C23.474 17.8663 23.8675 17.6713 24.0212 17.309C24.1939 16.9023 24.0041 16.4327 23.5974 16.26L23.044 16.0542L23.0477 16.0514C23.3062 15.2682 23.4792 14.4461 23.5553 13.5966L23.569 13.3992L24.1999 13.4002L24.3134 13.3917C24.714 13.327 25 12.9937 25 12.6002C25 12.1584 24.6418 11.8002 24.2 11.8002L23.569 11.7992L23.5553 11.6023C23.4841 10.8107 23.329 10.0433 23.099 9.3099L23.048 9.1562L23.5878 8.95378L23.6898 8.90341C24.0371 8.69334 24.1773 8.27723 24.0299 7.91235C23.8644 7.50269 23.3981 7.30477 22.9885 7.47029L22.431 7.6632L22.343 7.48922C21.9787 6.79622 21.5426 6.1469 21.0443 5.55148ZM12.6 2.8002C11.0289 2.8002 9.54416 3.16989 8.22803 3.82702L10.3852 7.56433C11.0628 7.26589 11.812 7.1002 12.6 7.1002C15.4345 7.1002 17.7682 9.24442 18.0675 11.9994H22.3818C22.0714 6.8668 17.8106 2.8002 12.6 2.8002ZM7.18901 4.42813C4.54385 6.18308 2.79995 9.18798 2.79995 12.6002C2.79995 16.0124 4.54385 19.0173 7.18901 20.7723L9.34711 17.0356C7.98443 16.0346 7.09995 14.4207 7.09995 12.6002C7.09995 10.7797 7.98443 9.1658 9.34711 8.16476L7.18901 4.42813ZM22.3819 13.2H18.0676C17.7687 15.9555 15.4348 18.1002 12.6 18.1002C11.812 18.1002 11.0628 17.9345 10.3852 17.6361L8.22803 21.3734C9.54416 22.0305 11.0289 22.4002 12.6 22.4002C17.8109 22.4002 22.072 18.3331 22.3819 13.2ZM8.29995 12.6002C8.29995 10.2254 10.2251 8.3002 12.6 8.3002C14.9748 8.3002 16.9 10.2254 16.9 12.6002C16.9 14.975 14.9748 16.9002 12.6 16.9002C10.2251 16.9002 8.29995 14.975 8.29995 12.6002Z" fill="#545458" fill-opacity="0.65"/>
</svg>
