<svg width="23" height="23" viewBox="0 0 23 23" fill="none" xmlns="http://www.w3.org/2000/svg">
<path d="M19.0571 12.7836C18.1561 16.0204 16.2582 18.2762 12.8297 18.9408C9.63455 19.5606 7.22857 18.1452 5.19324 15.8542C3.07164 11.2308 3.90558 7.37738 7.5417 5.15034C9.27988 4.08634 11.1587 3.71251 13.178 4.21735C13.7787 4.36752 14.4241 4.58799 14.2196 5.31649C14.0439 5.93955 13.4081 5.80535 12.8585 5.70311C9.9317 5.15993 7.42348 6.3038 6.15819 8.72575C4.91845 11.0998 5.33063 13.8221 7.21899 15.7456C9.069 17.6307 11.9095 18.0972 14.2356 16.8926C16.6608 15.6369 17.8558 13.1383 17.3765 10.2339C17.2838 9.66833 17.1496 9.12196 17.8717 8.97817C18.5843 8.83758 18.7025 9.43189 18.8718 9.94951C19.1754 10.8825 19.0763 11.8347 19.0603 12.7836H19.0571Z" fill="#918B8B"/>
<path d="M4.18037 20.4329C5.64696 19.9344 6.98894 20.19 8.42677 20.7683C11.1427 21.8579 13.8107 21.3563 16.3508 20.0239C16.8493 19.7619 17.4436 19.2602 17.8558 19.9855C18.3095 20.7843 17.5394 21.0719 16.9995 21.3722C14.1781 22.9443 11.1714 23.3245 8.14879 22.2669C6.54161 21.7045 5.12295 21.6918 3.57648 22.2541C2.75212 22.5545 1.86706 22.8868 0.9756 22.3787C-0.136325 21.3019 0.435614 20.0974 0.819036 18.9886C1.25039 17.7361 1.26636 16.6434 0.764718 15.3493C-0.551699 11.9464 -0.129934 8.60747 1.73286 5.46661C1.99486 5.02567 2.26006 4.42178 2.93105 4.77644C3.67234 5.16945 3.34323 5.70624 3.02371 6.24303C1.22163 9.28485 1.02672 12.4513 2.56361 15.6209C3.13554 16.7999 2.67544 17.7553 2.43899 18.8161C2.28563 19.5094 1.59866 20.3753 2.14823 20.861C2.64029 21.2987 3.50938 20.7268 4.17079 20.4265L4.18037 20.4329Z" fill="#918B8B"/>
<path d="M22.4824 3.63234C22.4632 5.08614 21.1819 6.36741 19.7473 6.36741C18.2647 6.36741 16.9004 4.95834 16.9675 3.49494C17.0346 2.04433 18.3478 0.820572 19.7984 0.855719C21.281 0.894061 22.5015 2.15616 22.4824 3.62914V3.63234Z" fill="#1DAB61"/>
<path d="M22.9968 11.841C22.7636 13.8348 22.2843 15.7487 21.1852 17.4645C20.8561 17.9789 20.463 18.4838 19.8016 18.0652C19.153 17.6562 19.5972 17.145 19.856 16.7104C20.7538 15.2087 21.4472 13.6495 21.3194 11.8442C21.4663 10.7386 21.3002 9.66186 21.0414 8.58828C20.9327 8.14095 20.8209 7.58499 21.4504 7.41245C22.1533 7.21755 22.3706 7.77351 22.508 8.28474C22.8211 9.44779 22.9936 10.6364 23 11.8442L22.9968 11.841Z" fill="#918B8B"/>
<path d="M14.635 2.00606C12.4974 1.24881 10.1777 1.25519 7.88677 2.19777C7.30525 2.43741 6.75248 2.74415 6.19332 3.03491C5.7428 3.26816 5.26992 3.4407 4.9472 2.9103C4.62129 2.3799 4.97915 2.02843 5.40731 1.74725C6.52243 1.01556 7.74618 0.501132 9.04023 0.261493C11.0756 -0.118734 13.1269 -0.147491 15.1111 0.603378C15.5648 0.772723 16.0537 0.977215 15.8779 1.59708C15.731 2.1179 15.2708 2.09553 14.635 2.00606Z" fill="#918B8B"/>
</svg>
